<svg xmlns="http://www.w3.org/2000/svg" viewBox="0 0 32 32" width="32" height="32">
  <rect width="32" height="32" rx="7" fill="#0d1117"/>
  <g transform="translate(3.2 4.6) scale(0.815)" fill="#ffffff">
    <path d="M23.922 16.992c-.861.885-2.575 2.101-6.427 2.101-3.852 0-5.566-1.216-6.427-2.101a2.29 2.29 0 0 0-.09-.087v3.845c0 2.775 3.13 4.395 6.517 4.395s6.517-1.62 6.517-4.395v-3.845a2.213 2.213 0 0 0-.09.087Z" transform="translate(-1.495 -2.1)"/>
    <path d="M28.157 10.807c-.15-.365-.35-.705-.596-1.011a3.83 3.83 0 0 0-.36-.395c.024-.077.045-.155.063-.234.12-.518.164-1.06.164-1.615 0-1.117-.184-2.16-.611-2.99a3.4 3.4 0 0 0-.61-.87 2.87 2.87 0 0 0-2.083-.86c-1.354 0-2.523.45-3.503 1.096a9.55 9.55 0 0 0-1.2.97 5.98 5.98 0 0 0-1.006-.083h-2.43c-.34 0-.674.028-1.005.083a9.55 9.55 0 0 0-1.2-.97c-.98-.646-2.15-1.096-3.503-1.096-.79 0-1.518.31-2.083.86a3.4 3.4 0 0 0-.61.87c-.428.83-.612 1.873-.612 2.99 0 .555.045 1.097.164 1.615.018.079.04.157.063.234a3.83 3.83 0 0 0-.36.395c-.245.306-.446.646-.596 1.011A4.86 4.86 0 0 0 2 12.65v3.043c0 .555.15 1.09.42 1.56.27.47.66.86 1.13 1.13v1.55c0 4.42 5.6 7.5 12.45 7.5s12.45-3.08 12.45-7.5v-1.55c.47-.27.86-.66 1.13-1.13.27-.47.42-1.005.42-1.56V12.65c0-.65-.14-1.27-.393-1.843Z" fill="none"/>
  </g>
  <path d="M16 7.2c-2.05 0-3.6.62-4.63 1.62-.86-.5-1.85-.82-2.9-.82-1.1 0-1.87.42-2.35 1.16-.45.7-.62 1.6-.62 2.5 0 .62.07 1.2.2 1.72-.5.6-.8 1.38-.8 2.28v3.6c0 3.72 4.7 6.34 11.1 6.34S27.1 22.98 27.1 19.26v-3.6c0-.9-.3-1.68-.8-2.28.13-.52.2-1.1.2-1.72 0-.9-.17-1.8-.62-2.5-.48-.74-1.25-1.16-2.35-1.16-1.05 0-2.04.32-2.9.82C19.6 7.82 18.05 7.2 16 7.2Zm0 2.1c1.72 0 2.76.55 3.4 1.4.42.55.66 1.22.78 1.9H11.82c.12-.68.36-1.35.78-1.9.64-.85 1.68-1.4 3.4-1.4ZM8.47 10.1c.5 0 1.02.12 1.5.33-.3.63-.5 1.32-.6 2.03-.42.08-.8.23-1.16.44-.1-.36-.15-.8-.15-1.24 0-.62.12-1.14.28-1.4.03-.05.06-.1.13-.16Zm15.06 0c.07.06.1.11.13.16.16.26.28.78.28 1.4 0 .44-.05.88-.15 1.24-.36-.21-.74-.36-1.16-.44-.1-.71-.3-1.4-.6-2.03.48-.21 1-.33 1.5-.33Z" fill="#ffffff"/>
  <path d="M10.15 15.1c-.86 0-1.55.7-1.55 1.55v1.9c0 .86.7 1.55 1.55 1.55.86 0 1.55-.7 1.55-1.55v-1.9c0-.86-.7-1.55-1.55-1.55Zm11.7 0c-.86 0-1.55.7-1.55 1.55v1.9c0 .86.7 1.55 1.55 1.55.86 0 1.55-.7 1.55-1.55v-1.9c0-.86-.7-1.55-1.55-1.55Z" fill="#0d1117"/>
</svg>
